# xmcd CD database file
#
# Track frame offsets:
#	150
#	15927
#	35497
#	53160
#	63446
#	96864
#	110160
#	121955
#	132152
#	147036
#	156858
#	168998
#	190497
#	201177
#	211435
#	222398
#	232129
#	248352
#
# Disc length: 3447 seconds
#
# Revision: 1
# Processed by: cddbd v1.5.2PL0 Copyright (c) Steve Scherf et al.
# Submitted via: CDex 1.51
#
DISCID=050d7512
DTITLE=Tony Crombie - seven classic albums plus - CD 1
DYEAR=2013
DGENRE=Jazz
TTITLE0=Basie Talks
TTITLE1=It Might As Well Be Spring
TTITLE2=Drop Me Off At Harlem
TTITLE3=Ting-A-Ling
TTITLE4=Straight Life
TTITLE5=Flying Home
TTITLE6=Gipsy In My Soul
TTITLE7=I Love Paris
TTITLE8=I Didn't Know About You
TTITLE9=The Ladys In Love With You
TTITLE10='Tain't What You Do
TTITLE11=Don't Let The Sun Catch You Crying
TTITLE12=Between The Devil And The Deep Blue Sea
TTITLE13=Don't Worry 'Bout Me
TTITLE14=Stop It
TTITLE15=All Of Me
TTITLE16=Perdido
TTITLE17=Love You Madly
EXTD=YEAR: 2013
EXTT0=
EXTT1=
EXTT2=
EXTT3=
EXTT4=
EXTT5=
EXTT6=
EXTT7=
EXTT8=
EXTT9=
EXTT10=
EXTT11=
EXTT12=
EXTT13=
EXTT14=
EXTT15=
EXTT16=
EXTT17=
PLAYORDER=
